<?xml version="1.0" encoding="UTF-8" ?>
<!DOCTYPE svg PUBLIC "-//W3C//DTD SVG 1.1//EN" "http://www.w3.org/Graphics/SVG/1.1/DTD/svg11.dtd">
<svg width="820pt" height="144pt" viewBox="0 0 820 144" version="1.1" xmlns="http://www.w3.org/2000/svg">
<g id="#ddddddff">
<path fill="#dddddd" opacity="1.00" d=" M 616.92 7.31 C 629.46 1.11 644.07 -0.38 657.78 2.02 C 662.57 3.05 667.39 4.06 671.90 6.03 C 685.09 11.29 696.41 20.70 704.46 32.35 C 696.75 37.57 688.97 42.68 681.22 47.82 C 676.43 40.55 669.28 34.96 661.17 31.86 C 648.43 26.72 633.30 28.30 621.81 35.80 C 616.62 39.22 612.30 43.70 608.79 48.80 C 607.37 51.41 606.06 54.07 604.87 56.79 C 604.56 57.78 604.24 58.77 603.90 59.76 C 601.32 68.73 601.90 78.42 604.87 87.22 C 609.04 98.02 617.53 107.21 628.28 111.64 L 628.53 112.07 C 629.62 112.41 630.72 112.74 631.83 113.05 C 640.67 116.07 650.33 115.84 659.21 113.11 C 662.67 111.78 665.92 109.99 669.13 108.17 C 673.87 104.99 677.92 100.86 681.18 96.18 C 688.77 101.29 696.18 106.68 703.99 111.46 C 698.75 120.97 689.83 127.82 680.86 133.65 L 680.02 133.65 C 678.06 135.07 675.93 136.26 673.60 136.94 L 673.29 137.48 C 671.80 138.00 670.31 138.50 668.82 138.95 C 653.85 144.30 637.08 144.29 622.11 138.98 C 620.32 138.36 618.55 137.68 616.95 136.68 L 615.77 136.87 C 615.69 136.63 615.52 136.15 615.44 135.91 C 613.15 135.31 611.10 134.11 609.12 132.88 C 604.96 130.50 601.13 127.61 597.61 124.38 C 594.05 121.25 591.04 117.58 588.12 113.88 C 585.98 111.04 584.22 107.95 582.38 104.92 C 582.39 104.59 582.42 103.93 582.44 103.59 C 582.10 103.50 581.42 103.32 581.08 103.23 L 581.32 102.08 C 571.73 82.90 572.31 59.18 582.03 40.14 C 589.17 26.22 600.82 14.08 615.42 8.09 C 615.51 7.85 615.68 7.37 615.77 7.14 L 616.92 7.31 Z" />
<path fill="#dddddd" opacity="1.00" d=" M 276.54 6.09 C 285.69 3.03 295.33 0.96 305.03 1.72 C 316.54 2.72 328.01 5.95 337.91 12.04 C 339.92 13.36 341.96 14.65 343.88 16.11 C 348.68 19.94 353.01 24.36 356.89 29.11 C 361.05 34.62 364.48 40.69 366.92 47.16 C 373.22 63.50 373.03 82.13 366.53 98.39 C 359.68 115.46 345.99 129.95 328.89 136.94 C 311.32 144.58 290.72 144.53 273.16 136.88 C 270.36 135.78 267.67 134.42 265.06 132.94 C 251.49 124.61 240.57 111.87 235.11 96.86 C 228.84 80.30 229.22 61.45 236.04 45.12 C 243.44 27.30 258.37 12.69 276.54 6.09 M 290.62 30.91 C 280.63 33.24 271.84 39.67 265.94 47.99 C 259.46 57.16 257.08 68.99 259.19 79.99 C 261.29 92.47 269.59 103.48 280.52 109.67 C 289.61 114.13 300.10 115.96 310.10 113.95 C 320.60 111.57 330.32 105.31 336.24 96.24 C 343.60 85.84 345.56 72.04 341.91 59.89 C 338.57 48.16 329.68 38.17 318.47 33.39 C 309.84 29.31 299.84 28.77 290.62 30.91 Z" />
<path fill="#dddddd" opacity="1.00" d=" M 0.00 15.20 L 0.70 2.63 C 8.84 2.59 16.97 2.63 25.11 2.61 C 45.11 30.68 65.02 58.83 84.96 86.94 C 85.75 87.92 86.68 88.76 87.61 89.60 C 87.96 60.61 87.67 31.60 87.76 2.61 C 97.05 2.60 106.35 2.64 115.65 2.58 C 115.65 48.99 115.55 95.41 115.70 141.82 C 107.23 141.71 98.76 141.80 90.30 141.76 C 71.57 115.17 52.57 88.78 33.81 62.21 C 32.30 60.05 30.95 57.60 28.43 56.47 C 28.22 84.90 28.34 113.35 28.37 141.78 C 18.91 141.65 9.45 141.99 0.00 141.60 L 0.00 15.20 Z" />
<path fill="#dddddd" opacity="1.00" d=" M 134.96 28.77 C 135.11 20.03 134.65 11.26 135.24 2.54 C 165.26 2.70 195.29 2.57 225.32 2.60 C 225.31 11.33 225.26 20.06 225.35 28.78 C 195.22 28.75 165.09 28.78 134.96 28.77 Z" />
<path fill="#dddddd" opacity="1.00" d=" M 365.29 28.83 C 365.46 20.08 365.35 11.32 365.35 2.57 C 400.11 2.64 434.86 2.63 469.62 2.58 C 469.62 11.32 469.51 20.07 469.68 28.82 C 456.85 28.69 444.03 28.84 431.20 28.74 C 431.24 66.42 431.16 104.10 431.24 141.78 C 421.92 141.80 412.59 141.70 403.27 141.83 C 403.49 104.12 403.22 66.40 403.40 28.69 C 390.70 28.90 377.99 28.65 365.29 28.83 Z" />
<path fill="#dddddd" opacity="1.00" d=" M 478.18 28.85 C 478.35 20.09 478.23 11.32 478.25 2.56 C 508.29 2.67 538.34 2.60 568.38 2.60 C 568.38 11.33 568.31 20.06 568.42 28.79 C 538.34 28.80 508.26 28.68 478.18 28.85 Z" />
<path fill="#dddddd" opacity="1.00" d=" M 709.65 2.60 C 718.95 2.61 728.25 2.63 737.54 2.59 C 737.49 22.48 737.57 42.38 737.51 62.28 C 755.57 62.19 773.63 62.21 791.69 62.27 C 791.66 42.38 791.70 22.49 791.67 2.60 C 801.11 2.65 810.55 2.55 820.00 2.66 L 820.00 141.58 C 810.55 142.02 801.09 141.64 791.64 141.78 C 791.74 124.04 791.63 106.30 791.69 88.56 C 773.63 88.60 755.56 88.61 737.50 88.55 C 737.60 106.30 737.43 124.05 737.59 141.81 C 728.27 141.74 718.94 141.77 709.62 141.78 C 709.71 95.39 709.65 49.00 709.65 2.60 Z" />
<path fill="#dddddd" opacity="1.00" d=" M 135.21 59.32 C 165.25 59.54 195.29 59.37 225.33 59.41 C 225.30 68.20 225.26 76.99 225.35 85.78 C 195.22 85.75 165.09 85.78 134.96 85.77 C 135.09 76.95 134.69 68.13 135.21 59.32 Z" />
<path fill="#dddddd" opacity="1.00" d=" M 478.22 59.35 C 508.28 59.50 538.34 59.39 568.40 59.40 C 568.36 68.20 568.32 76.99 568.42 85.79 C 538.34 85.79 508.26 85.68 478.18 85.85 C 478.34 77.01 478.27 68.18 478.22 59.35 Z" />
<path fill="#dddddd" opacity="1.00" d=" M 134.96 116.23 C 165.09 116.22 195.22 116.24 225.35 116.22 C 225.28 124.74 225.27 133.26 225.35 141.78 C 195.22 141.76 165.09 141.78 134.96 141.77 C 134.97 133.26 134.97 124.74 134.96 116.23 Z" />
<path fill="#dddddd" opacity="1.00" d=" M 478.18 116.15 C 508.26 116.32 538.34 116.20 568.42 116.22 C 568.33 124.74 568.33 133.26 568.42 141.78 C 538.34 141.80 508.26 141.68 478.18 141.85 C 478.31 133.28 478.31 124.72 478.18 116.15 Z" />
</g>
</svg>
